HIERARCHY
ROOT Hips
{
	OFFSET -3.958830 18.904000 13.208200
	CHANNELS 6 Xposition Yposition Zposition Zrotation Yrotation Xrotation 
	JOINT LHipJoint
	{
		OFFSET 0.000000 0.000000 0.000000
		CHANNELS 3 Zrotation Yrotation Xrotation
		JOINT LeftUpLeg
		{
			OFFSET 1.800000 -1.400000 0.085000
			CHANNELS 3 Zrotation Yrotation Xrotation
			JOINT LeftLeg
			{
				OFFSET 2.215000 -6.000000 0.000000
				CHANNELS 3 Zrotation Yrotation Xrotation
				JOINT LeftFoot
				{
					OFFSET 2.500000 -6.900000 0.000000
					CHANNELS 3 Zrotation Yrotation Xrotation
					JOINT LeftToeBase
					{
						OFFSET 0.200000 -0.500000 1.950000
						CHANNELS 3 Zrotation Yrotation Xrotation
						End Site
						{
							OFFSET 0.000000 0.000000 0.000000
						}
					}
				}
			}
		}
	}
	JOINT RHipJoint
	{
		OFFSET 0.000000 0.000000 0.000000
		CHANNELS 3 Zrotation Yrotation Xrotation
		JOINT RightUpLeg
		{
			OFFSET -1.800000 -1.400000 0.085000
			CHANNELS 3 Zrotation Yrotation Xrotation
			JOINT RightLeg
			{
				OFFSET -2.215000 -6.000000 0.000000
				CHANNELS 3 Zrotation Yrotation Xrotation
				JOINT RightFoot
				{
					OFFSET -2.500000 -6.900000 0.000000
					CHANNELS 3 Zrotation Yrotation Xrotation
					JOINT RightToeBase
					{
						OFFSET -0.200000 -0.500000 1.950000
						CHANNELS 3 Zrotation Yrotation Xrotation
						End Site
						{
							OFFSET 0.000000 0.000000 0.000000
						}
					}
				}
			}
		}
	}
	JOINT LowerBack
	{
		OFFSET 0.000000 0.000000 0.000000
		CHANNELS 3 Zrotation Yrotation Xrotation
		JOINT Spine
		{
			OFFSET -0.087000 1.940000 -0.288900
			CHANNELS 3 Zrotation Yrotation Xrotation
			JOINT Spine1
			{
				OFFSET 0.000000 1.950000 0.060000
				CHANNELS 3 Zrotation Yrotation Xrotation
				JOINT Neck
				{
					OFFSET 0.000000 0.000000 0.000000
					CHANNELS 3 Zrotation Yrotation Xrotation
					JOINT Neck1
					{
						OFFSET 0.000000 1.600000 0.340000
						CHANNELS 3 Zrotation Yrotation Xrotation
						JOINT Head
						{
							OFFSET 0.000000 1.667000 -0.240000
							CHANNELS 3 Zrotation Yrotation Xrotation
							End Site
							{
								OFFSET 0.000000 0.000000 0.000000
							}
						}
					}
				}
				JOINT LeftShoulder
				{
					OFFSET 0.000000 0.000000 0.000000
					CHANNELS 3 Zrotation Yrotation Xrotation
					JOINT LeftArm
					{
						OFFSET 2.700000 1.550000 -0.730000
						CHANNELS 3 Zrotation Yrotation Xrotation
						JOINT LeftForeArm
						{
							OFFSET 5.450000 0.000000 0.000000
							CHANNELS 3 Zrotation Yrotation Xrotation
							JOINT LeftHand
							{
								OFFSET 3.450000 0.000000 0.000000
								CHANNELS 3 Zrotation Yrotation Xrotation
								JOINT LeftHandIndex1
								{
									OFFSET 0.750000 0.000000 0.000000
									CHANNELS 3 Zrotation Yrotation Xrotation
									End Site
									{
										OFFSET 0.000000 0.000000 0.000000
									}
								}
							}
						}
					}
				}
				JOINT RightShoulder
				{
					OFFSET 0.000000 0.000000 0.000000
					CHANNELS 3 Zrotation Yrotation Xrotation
					JOINT RightArm
					{
						OFFSET -2.700000 1.550000 -0.730000
						CHANNELS 3 Zrotation Yrotation Xrotation
						JOINT RightForeArm
						{
							OFFSET -5.450000 0.000000 0.000000
							CHANNELS 3 Zrotation Yrotation Xrotation
							JOINT RightHand
							{
								OFFSET -3.450000 0.000000 0.000000
								CHANNELS 3 Zrotation Yrotation Xrotation
								JOINT RightHandIndex1
								{
									OFFSET -0.750000 0.000000 0.000000
									CHANNELS 3 Zrotation Yrotation Xrotation
									End Site
									{
										OFFSET 0.000000 0.000000 0.000000
									}
								}
							}
						}
					}
				}
			}
		}
	}
}
MOTION
Frames: 14
Frame Time: 0.016667
0.607800 17.678640 -2.394250 -3.382845 -2.513234 -0.958048 -15.109777 13.462363 2.749248 3.043570 0.362209 -1.971845 -8.404689 6.976054 13.671679 -0.530216 5.308082 3.063364 0.313720 -0.202490 0.274610 18.397094 -10.318222 3.247492 1.873725 4.802157 -27.724127 4.904905 -4.128617 16.720030 0.059846 -2.384603 3.769916 0.009210 0.550690 0.211120 -3.828776 -2.215777 -7.315211 9.923550 -4.541721 10.705391 -7.744652 -3.287921 5.870645 2.367560 -3.567393 -5.762581 -8.412680 5.758199 35.264559 -3.410410 3.556550 -5.940320 -23.188566 1.912853 0.023817 -41.408462 7.998812 -9.353689 -32.994952 -23.229795 2.516861 -3.870680 2.885001 0.671650 0.306450 -0.226770 0.249690 18.273056 -1.332454 3.217167 48.982558 -10.069792 -14.678249 49.703278 33.677254 8.628957 1.820470 -1.568071 -0.453120 0.414830 0.107540 -0.301960 
0.608050 17.669090 -2.382530 -3.010539 -2.824700 -0.813016 -15.135165 13.454849 2.759486 2.628379 0.425873 -1.893486 -8.415997 6.960824 13.582443 -0.531632 5.306631 3.066007 0.305680 -0.209330 0.266760 18.379925 -10.304881 3.220267 1.716833 4.611331 -27.518462 5.026831 -4.023752 15.585924 0.079309 -2.316008 3.799823 0.009840 0.559940 0.210420 -3.765812 -2.242763 -7.281395 9.273603 -4.418847 10.275473 -7.620685 -3.247540 6.082047 2.355358 -3.503467 -5.694473 -8.243947 5.843768 35.044094 -3.500700 3.729400 -5.726590 -22.760571 2.307916 -0.007013 -41.602505 8.124475 -9.403493 -33.484716 -23.413706 2.650264 -3.883347 2.889762 0.664040 0.317280 -0.236910 0.247990 17.927319 -1.710755 3.124173 49.353328 -10.010218 -14.634949 50.175674 33.784433 8.829917 1.814245 -1.575988 -0.458380 0.415560 0.114060 -0.302880 
0.610760 17.649790 -2.361770 -2.555648 -3.280144 -0.452308 -15.164008 13.421759 2.757868 2.040875 0.486945 -1.920699 -8.391753 6.915623 13.455709 -0.536055 5.297660 3.081533 0.294420 -0.224580 0.253820 18.368265 -10.279769 3.190476 1.614847 4.364155 -27.239239 5.191029 -3.831045 13.653119 0.113302 -2.220215 3.849677 0.010290 0.587930 0.212220 -3.706843 -2.244461 -7.212975 8.597223 -4.282094 9.421958 -7.609747 -3.218200 6.431316 2.345785 -3.404002 -5.581659 -7.907148 5.974646 34.346342 -3.537450 3.963140 -5.047810 -22.031118 2.979742 -0.064814 -41.864950 8.323166 -9.449693 -34.458719 -23.785518 2.937435 -3.907567 2.905711 0.645410 0.344500 -0.262980 0.252850 17.277417 -2.409417 3.026245 50.083572 -10.133902 -14.643282 51.258401 34.262222 9.338163 1.798803 -1.605167 -0.469400 0.415490 0.119250 -0.301440 
0.617690 17.630410 -2.342470 -2.092978 -3.940201 -0.213355 -15.192638 13.395516 2.762543 1.440661 0.544780 -1.927847 -8.417892 6.920818 13.527949 -0.533968 5.304021 3.084024 0.290520 -0.235030 0.254870 18.353261 -10.251555 3.171302 1.517135 4.108311 -26.798874 5.420050 -3.638340 11.543878 0.129974 -2.131660 3.890014 0.007360 0.597260 0.218330 -3.640538 -2.261315 -7.171963 7.901861 -4.108795 8.854543 -7.577649 -3.118639 6.731867 2.389221 -3.271629 -5.528415 -7.584030 6.089662 34.018860 -3.686370 4.275680 -4.785450 -21.354494 3.579020 -0.118380 -42.117940 8.560022 -9.580396 -35.497041 -24.299465 3.262525 -3.919510 2.921439 0.640060 0.357380 -0.271990 0.253160 16.576038 -3.048489 2.992887 50.826366 -10.414986 -14.775851 52.295070 34.534601 9.739033 1.786534 -1.624167 -0.472920 0.411160 0.121930 -0.305610 
0.627730 17.615460 -2.325570 -1.654832 -4.605779 -0.086769 -15.217964 13.385707 2.777411 0.880723 0.596028 -1.926693 -8.483073 6.959338 13.692571 -0.528777 5.319004 3.080247 0.278850 -0.252620 0.252280 18.335583 -10.223341 3.159696 1.357406 3.875947 -26.347155 5.673095 -3.499018 9.813681 0.139617 -2.076211 3.918637 -0.001730 0.600960 0.215760 -3.573837 -2.308600 -7.162399 7.257887 -3.997382 8.605299 -7.541654 -3.050849 6.836690 2.427494 -3.223401 -5.559400 -7.491358 6.215152 33.976174 -3.694250 4.472840 -4.655050 -20.789295 4.090794 -0.160137 -42.355737 8.813199 -9.724920 -36.374989 -24.840229 3.581099 -3.922004 2.923412 0.643910 0.359860 -0.276640 0.248380 15.983077 -3.540146 3.061151 51.496379 -10.876287 -14.998983 53.587383 35.012295 10.295510 1.778869 -1.630463 -0.480340 0.412310 0.128590 -0.310640 
0.639560 17.602050 -2.310290 -1.404827 -5.326974 0.061776 -15.226837 13.363083 2.780851 0.443086 0.613614 -2.024578 -8.536348 6.997124 13.924598 -0.531911 5.336933 3.077737 0.268940 -0.264990 0.245840 18.334377 -10.204381 3.160473 1.341126 3.764957 -26.093710 5.867326 -3.413290 8.720752 0.143151 -2.057102 3.926165 -0.004110 0.613640 0.217210 -3.555070 -2.307977 -7.147146 7.023854 -3.920079 8.407605 -7.648960 -2.998911 6.868770 2.460993 -3.223517 -5.479566 -7.424709 6.393638 33.719980 -3.638560 4.643530 -4.570590 -20.341777 4.740636 -0.316003 -42.491290 8.934177 -9.762670 -37.186343 -25.314230 3.905468 -3.929036 2.926503 0.647020 0.366730 -0.281880 0.247890 15.479068 -4.192398 3.051983 51.957474 -11.324742 -15.094587 55.041809 35.486526 10.945599 1.769007 -1.644345 -0.490780 0.417170 0.135180 -0.310860 
0.653370 17.596270 -2.298370 -1.264714 -6.075013 0.133548 -15.230693 13.350368 2.791189 0.009612 0.627893 -2.137767 -8.531920 7.021089 14.164269 -0.523946 5.332530 3.076400 0.263020 -0.267190 0.244660 18.333871 -10.196904 3.163646 1.411354 3.693599 -25.931802 5.866434 -3.347417 8.098114 0.144989 -2.040095 3.932855 -0.008270 0.613280 0.218190 -3.542919 -2.305767 -7.148048 6.913643 -3.842478 8.413448 -7.700310 -2.940959 6.800542 2.527879 -3.197923 -5.399124 -7.344252 6.547822 33.687182 -3.771470 4.926730 -4.493620 -20.197269 5.223199 -0.475328 -42.546358 9.003153 -9.796659 -37.604600 -25.740657 4.160195 -3.931785 2.933674 0.641760 0.369390 -0.281190 0.244060 15.206557 -4.704660 3.041910 52.189093 -11.724064 -15.146165 56.323326 35.931354 11.549256 1.767092 -1.657894 -0.488000 0.413340 0.136840 -0.309800 
0.666770 17.596400 -2.286150 -1.207707 -6.802530 0.231646 -15.234873 13.340405 2.801358 -0.382556 0.629262 -2.250285 -8.466671 7.005028 14.308524 -0.523492 5.322378 3.074143 0.267580 -0.266800 0.252820 18.332868 -10.190152 3.164844 1.469689 3.671117 -25.922174 5.839835 -3.321362 7.876592 0.144643 -2.035139 3.930462 -0.008220 0.606840 0.229810 -3.530090 -2.305656 -7.143970 6.863303 -3.764634 8.409729 -7.694198 -2.887194 6.716343 2.609448 -3.159550 -5.256065 -7.234127 6.664449 33.592993 -4.040680 5.225860 -4.428830 -20.158886 5.716304 -0.705637 -42.680121 8.894991 -9.762045 -37.603724 -25.958443 4.280806 -3.939312 2.948592 0.637530 0.373660 -0.278700 0.241970 15.011254 -5.254037 2.993735 52.254904 -12.101739 -15.147769 57.428988 36.337555 12.109791 1.759214 -1.680307 -0.480770 0.399490 0.135560 -0.314180 
0.679560 17.601910 -2.277340 -1.214063 -7.449105 0.359818 -15.234765 13.336117 2.809734 -0.714944 0.596884 -2.489314 -8.420923 7.004573 14.562547 -0.528813 5.319304 3.075577 0.271290 -0.263780 0.259860 18.333819 -10.186686 3.166094 1.461813 3.694707 -26.144702 5.835940 -3.345797 8.098746 0.143168 -2.037329 3.923864 -0.005830 0.611180 0.239240 -3.526950 -2.308497 -7.137893 6.918097 -3.757518 8.472033 -7.712603 -2.895888 6.570718 2.667366 -3.175069 -5.072400 -7.208338 6.793723 33.364999 -4.296570 5.477500 -4.510450 -20.101661 6.240495 -0.982044 -42.864770 8.631283 -9.654578 -37.387580 -25.909370 4.285789 -3.950918 2.946959 0.636970 0.380780 -0.275970 0.243530 14.832818 -5.818138 2.894079 52.307932 -12.355846 -15.105133 58.147977 36.546655 12.482377 1.752378 -1.693320 -0.480020 0.398020 0.133280 -0.314310 
0.690360 17.611670 -2.271280 -1.404283 -8.071327 0.567900 -15.226166 13.325014 2.802428 -0.809331 0.515413 -2.880459 -8.446095 7.034518 14.870673 -0.541215 5.325454 3.075569 0.271510 -0.262550 0.264540 18.344235 -10.185497 3.174350 1.596969 3.780493 -26.464077 5.710003 -3.352592 8.431534 0.149316 -2.031334 3.926111 0.000190 0.622390 0.239250 -3.550844 -2.286378 -7.120643 7.195525 -3.794128 8.450419 -7.761963 -2.936295 6.509716 2.693367 -3.194857 -4.865082 -7.166896 6.941500 33.059870 -4.467900 5.695200 -4.541240 -20.035282 6.681790 -1.236196 -43.200615 8.264930 -9.549396 -36.843212 -25.767598 4.190192 -3.970900 2.932282 0.631660 0.392100 -0.281930 0.244020 14.696434 -6.321053 2.737736 52.424171 -12.366234 -15.020691 58.329220 36.558453 12.602992 1.744708 -1.696297 -0.486540 0.407330 0.134220 -0.315780 
0.697740 17.625000 -2.268350 -1.593457 -8.612883 0.773672 -15.226877 13.320871 2.791464 -0.821993 0.407607 -3.350596 -8.492361 7.074217 15.224968 -0.571990 5.346905 3.069105 0.272370 -0.260720 0.266130 18.346339 -10.176847 3.176706 1.669268 3.863724 -26.797141 5.571202 -3.364079 8.822122 0.155836 -2.031590 3.925017 0.015150 0.637850 0.236850 -3.550019 -2.290907 -7.094481 7.269328 -3.825092 8.371467 -7.631625 -2.971508 6.607636 2.677192 -3.145204 -4.638788 -7.020448 7.069142 32.808402 -4.622230 5.875520 -4.688200 -20.050270 6.914371 -1.453780 -43.620168 7.773350 -9.449613 -36.020810 -25.503644 3.970398 -3.997105 2.906952 0.633260 0.406250 -0.290630 0.245820 14.755977 -6.651081 2.523552 52.409669 -12.150254 -14.901086 58.032863 36.306265 12.428153 1.729784 -1.690227 -0.503970 0.425630 0.140000 -0.321730 
0.702690 17.638740 -2.269520 -1.653837 -9.237829 0.928175 -15.242407 13.334048 2.795371 -0.894729 0.287437 -3.873179 -8.640720 7.166787 15.700827 -0.588534 5.379660 3.052641 0.274050 -0.256900 0.271640 18.331014 -10.159822 3.173906 1.639825 3.930928 -27.178813 5.390251 -3.382367 9.381592 0.159903 -2.026422 3.918631 0.025080 0.644460 0.235320 -3.499085 -2.347838 -7.083408 6.905301 -3.775058 8.411336 -7.240339 -2.939260 6.675805 2.615986 -3.058196 -4.496945 -6.864510 7.219186 32.772618 -4.598020 6.039650 -4.883400 -20.060121 6.957496 -1.578287 -44.138701 7.250746 -9.375275 -35.146695 -25.124118 3.692174 -4.017030 2.885550 0.634540 0.411780 -0.293360 0.241900 14.936833 -6.731758 2.326421 52.291134 -11.803756 -14.781479 57.318411 35.920696 12.055561 1.727165 -1.677307 -0.512690 0.437030 0.145250 -0.325830 
0.706120 17.649440 -2.274360 -1.645472 -9.869738 1.109510 -15.269074 13.348364 2.798395 -0.989266 0.120918 -4.567121 -8.831402 7.295595 16.377780 -0.601429 5.419254 3.025884 0.296960 -0.230360 0.293740 18.306846 -10.131500 3.166486 1.538772 4.002288 -27.631230 5.214388 -3.397111 9.990500 0.156847 -2.024241 3.905149 0.046240 0.635790 0.242060 -3.419434 -2.428602 -7.060832 6.292753 -3.687660 8.354387 -6.674967 -2.884135 6.944164 2.522618 -2.943917 -4.357213 -6.667337 7.325136 32.666001 -4.714030 6.231940 -5.279550 -19.956000 6.939191 -1.671355 -44.816024 6.576276 -9.286341 -34.287703 -24.694983 3.402600 -4.032054 2.878790 0.633060 0.413980 -0.287000 0.240370 15.094185 -6.722194 2.104135 52.140104 -11.261682 -14.614280 56.623690 35.749705 11.790079 1.723466 -1.680739 -0.508380 0.436100 0.137520 -0.331890 
0.708850 17.657650 -2.281540 -1.728108 -10.516860 1.253232 -15.292134 13.362670 2.801677 -0.896455 -0.073207 -5.292934 -9.165956 7.485479 17.104720 -0.615590 5.485308 2.988535 0.320640 -0.201890 0.317760 18.285604 -10.103718 3.161186 1.580753 4.096379 -28.008276 4.906771 -3.398171 10.683395 0.150427 -2.017929 3.894991 0.069200 0.625580 0.244450 -3.348194 -2.509366 -7.045945 5.776321 -3.597252 8.368216 -6.094814 -2.818731 7.261332 2.415593 -2.822557 -4.255694 -6.491435 7.432970 32.734855 -4.805760 6.408740 -5.855600 -19.850609 6.765221 -1.733342 -45.444261 5.791211 -9.130136 -33.505194 -24.075735 3.077364 -4.044767 2.860973 0.639060 0.412380 -0.276750 0.238670 15.268406 -6.563650 1.900442 51.954754 -10.606523 -14.451543 55.721717 35.485535 11.414328 1.719659 -1.672685 -0.508370 0.443290 0.130160 -0.339800 
